<?xml version="1.0" encoding="UTF-8" standalone="no"?><svg xmlns="http://www.w3.org/2000/svg" xmlns:xlink="http://www.w3.org/1999/xlink" contentScriptType="application/ecmascript" contentStyleType="text/css" height="442px" preserveAspectRatio="none" style="width:277px;height:442px;" version="1.1" viewBox="0 0 277 442" width="277px" zoomAndPan="magnify"><defs><filter height="300%" id="fgi7ixb" width="300%" x="-1" y="-1"><feGaussianBlur result="blurOut" stdDeviation="2.0"/><feColorMatrix in="blurOut" result="blurOut2" type="matrix" values="0 0 0 0 0 0 0 0 0 0 0 0 0 0 0 0 0 0 .4 0"/><feOffset dx="4.0" dy="4.0" in="blurOut2" result="blurOut3"/><feBlend in="SourceGraphic" in2="blurOut3" mode="normal"/></filter></defs><g><!--entity mongoDbBase--><ellipse cx="229.5" cy="17" fill="#FEFECE" filter="url(#fgi7ixb)" rx="8" ry="8" style="stroke: #A80036; stroke-width: 2.0;"/><text fill="#000000" font-family="sans-serif" font-size="14" lengthAdjust="spacingAndGlyphs" textLength="93" x="183" y="40.5332">mongoDbBase</text><!--entity javaOcr--><ellipse cx="30.5" cy="17" fill="#FEFECE" filter="url(#fgi7ixb)" rx="8" ry="8" style="stroke: #A80036; stroke-width: 2.0;"/><text fill="#000000" font-family="sans-serif" font-size="14" lengthAdjust="spacingAndGlyphs" textLength="49" x="6" y="40.5332">javaOcr</text><!--entity HTTP--><ellipse cx="123.5" cy="309" fill="#FEFECE" filter="url(#fgi7ixb)" rx="8" ry="8" style="stroke: #A80036; stroke-width: 2.0;"/><text fill="#000000" font-family="sans-serif" font-size="14" lengthAdjust="spacingAndGlyphs" textLength="36" x="105.5" y="332.5332">HTTP</text><!--entity business--><rect fill="#FEFECE" filter="url(#fgi7ixb)" height="37.6094" style="stroke: #A80036; stroke-width: 1.5;" width="76" x="85.5" y="104"/><rect fill="#FEFECE" height="5" style="stroke: #A80036; stroke-width: 1.5;" width="10" x="80.5" y="109"/><rect fill="#FEFECE" height="5" style="stroke: #A80036; stroke-width: 1.5;" width="10" x="80.5" y="131.6094"/><text fill="#000000" font-family="sans-serif" font-size="14" lengthAdjust="spacingAndGlyphs" textLength="56" x="95.5" y="128.5332">business</text><!--entity ws--><rect fill="#FEFECE" filter="url(#fgi7ixb)" height="37.6094" style="stroke: #A80036; stroke-width: 1.5;" width="36" x="105.5" y="202"/><rect fill="#FEFECE" height="5" style="stroke: #A80036; stroke-width: 1.5;" width="10" x="100.5" y="207"/><rect fill="#FEFECE" height="5" style="stroke: #A80036; stroke-width: 1.5;" width="10" x="100.5" y="229.6094"/><text fill="#000000" font-family="sans-serif" font-size="14" lengthAdjust="spacingAndGlyphs" textLength="16" x="115.5" y="226.5332">ws</text><!--entity domain--><rect fill="#FEFECE" filter="url(#fgi7ixb)" height="37.6094" style="stroke: #A80036; stroke-width: 1.5;" width="66" x="196.5" y="104"/><rect fill="#FEFECE" height="5" style="stroke: #A80036; stroke-width: 1.5;" width="10" x="191.5" y="109"/><rect fill="#FEFECE" height="5" style="stroke: #A80036; stroke-width: 1.5;" width="10" x="191.5" y="131.6094"/><text fill="#000000" font-family="sans-serif" font-size="14" lengthAdjust="spacingAndGlyphs" textLength="46" x="206.5" y="128.5332">domain</text><!--entity front--><rect fill="#FEFECE" filter="url(#fgi7ixb)" height="37.6094" style="stroke: #A80036; stroke-width: 1.5;" width="49" x="58" y="396"/><rect fill="#FEFECE" height="5" style="stroke: #A80036; stroke-width: 1.5;" width="10" x="53" y="401"/><rect fill="#FEFECE" height="5" style="stroke: #A80036; stroke-width: 1.5;" width="10" x="53" y="423.6094"/><text fill="#000000" font-family="sans-serif" font-size="14" lengthAdjust="spacingAndGlyphs" textLength="29" x="68" y="420.5332">front</text><!--entity app--><rect fill="#FEFECE" filter="url(#fgi7ixb)" height="37.6094" style="stroke: #A80036; stroke-width: 1.5;" width="44" x="142.5" y="396"/><rect fill="#FEFECE" height="5" style="stroke: #A80036; stroke-width: 1.5;" width="10" x="137.5" y="401"/><rect fill="#FEFECE" height="5" style="stroke: #A80036; stroke-width: 1.5;" width="10" x="137.5" y="423.6094"/><text fill="#000000" font-family="sans-serif" font-size="14" lengthAdjust="spacingAndGlyphs" textLength="24" x="152.5" y="420.5332">app</text><!--entity ocr--><rect fill="#FEFECE" filter="url(#fgi7ixb)" height="37.6094" style="stroke: #A80036; stroke-width: 1.5;" width="40" x="10.5" y="104"/><rect fill="#FEFECE" height="5" style="stroke: #A80036; stroke-width: 1.5;" width="10" x="5.5" y="109"/><rect fill="#FEFECE" height="5" style="stroke: #A80036; stroke-width: 1.5;" width="10" x="5.5" y="131.6094"/><text fill="#000000" font-family="sans-serif" font-size="14" lengthAdjust="spacingAndGlyphs" textLength="20" x="20.5" y="128.5332">ocr</text><path d="M229.5,44.424 C229.5,61.244 229.5,86.611 229.5,103.715 " fill="none" style="stroke: #A80036; stroke-width: 1.0;"/><path d="M30.5,44.424 C30.5,61.244 30.5,86.611 30.5,103.715 " fill="none" style="stroke: #A80036; stroke-width: 1.0;"/><path d="M161.594,123 C173.177,123 184.76,123 196.343,123 " fill="none" style="stroke: #A80036; stroke-width: 1.0;"/><path d="M123.5,142.057 C123.5,159.112 123.5,184.563 123.5,201.698 " fill="none" style="stroke: #A80036; stroke-width: 1.0;"/><path d="M50.8438,123 C62.3855,123 73.9272,123 85.469,123 " fill="none" style="stroke: #A80036; stroke-width: 1.0;"/><path d="M123.5,240.317 C123.5,257.463 123.5,282.891 123.5,299.7 " fill="none" style="stroke: #A80036; stroke-width: 1.0;"/><path d="M115.98,336.4245 C108.721,353.2441 97.7733,378.6107 90.3916,395.7147 " fill="none" style="stroke: #A80036; stroke-width: 1.0;"/><path d="M131.02,336.4245 C138.279,353.2441 149.227,378.6107 156.608,395.7147 " fill="none" style="stroke: #A80036; stroke-width: 1.0;"/></g></svg>