<?xml version="1.0" encoding="UTF-8" standalone="no"?><svg xmlns="http://www.w3.org/2000/svg" xmlns:xlink="http://www.w3.org/1999/xlink" contentScriptType="application/ecmascript" contentStyleType="text/css" height="228px" preserveAspectRatio="none" style="width:566px;height:228px;" version="1.1" viewBox="0 0 566 228" width="566px" zoomAndPan="magnify"><defs><filter height="300%" id="fhkeujz" width="300%" x="-1" y="-1"><feGaussianBlur result="blurOut" stdDeviation="2.0"/><feColorMatrix in="blurOut" result="blurOut2" type="matrix" values="0 0 0 0 0 0 0 0 0 0 0 0 0 0 0 0 0 0 .4 0"/><feOffset dx="4.0" dy="4.0" in="blurOut2" result="blurOut3"/><feBlend in="SourceGraphic" in2="blurOut3" mode="normal"/></filter></defs><g><!--class UserRepository--><rect fill="#FEFECE" filter="url(#fhkeujz)" height="75.6719" style="stroke: #A80036; stroke-width: 1.5;" width="243" x="33" y="8"/><ellipse cx="107.75" cy="24" fill="#B4A7E5" rx="11" ry="11" style="stroke: #A80036; stroke-width: 1.0;"/><path d="M108.7031,20.6406 L108.7031,27.2969 L110.4219,27.2969 Q111.0313,27.2969 111.2969,27.5313 Q111.5625,27.7656 111.5625,28.1563 Q111.5625,28.5313 111.2969,28.7656 Q111.0313,29 110.4219,29 L105.2813,29 Q104.6719,29 104.4063,28.7656 Q104.1406,28.5313 104.1406,28.1406 Q104.1406,27.7656 104.4063,27.5313 Q104.6719,27.2969 105.2813,27.2969 L107,27.2969 L107,20.6406 L105.2813,20.6406 Q104.6719,20.6406 104.4063,20.4063 Q104.1406,20.1719 104.1406,19.7813 Q104.1406,19.4063 104.4063,19.1719 Q104.6719,18.9375 105.2813,18.9375 L110.4219,18.9375 Q111.0313,18.9375 111.2969,19.1719 Q111.5625,19.4063 111.5625,19.7813 Q111.5625,20.1719 111.2969,20.4063 Q111.0313,20.6406 110.4219,20.6406 L108.7031,20.6406 Z "/><text fill="#000000" font-family="sans-serif" font-size="12" font-style="italic" lengthAdjust="spacingAndGlyphs" textLength="85" x="128.25" y="28.9102">UserRepository</text><line style="stroke: #A80036; stroke-width: 1.5;" x1="34" x2="275" y1="40" y2="40"/><line style="stroke: #A80036; stroke-width: 1.5;" x1="34" x2="275" y1="48" y2="48"/><text fill="#000000" font-family="sans-serif" font-size="11" lengthAdjust="spacingAndGlyphs" textLength="176" x="39" y="63.4189">findUserByEmail(email: String) : User</text><text fill="#000000" font-family="sans-serif" font-size="11" lengthAdjust="spacingAndGlyphs" textLength="231" x="39" y="77.2549">findUSerByUserName(userName : String) : User</text><!--class WineRepository--><rect fill="#FEFECE" filter="url(#fhkeujz)" height="61.8359" style="stroke: #A80036; stroke-width: 1.5;" width="246" x="311.5" y="15"/><ellipse cx="386.75" cy="31" fill="#B4A7E5" rx="11" ry="11" style="stroke: #A80036; stroke-width: 1.0;"/><path d="M387.7031,27.6406 L387.7031,34.2969 L389.4219,34.2969 Q390.0313,34.2969 390.2969,34.5313 Q390.5625,34.7656 390.5625,35.1563 Q390.5625,35.5313 390.2969,35.7656 Q390.0313,36 389.4219,36 L384.2813,36 Q383.6719,36 383.4063,35.7656 Q383.1406,35.5313 383.1406,35.1406 Q383.1406,34.7656 383.4063,34.5313 Q383.6719,34.2969 384.2813,34.2969 L386,34.2969 L386,27.6406 L384.2813,27.6406 Q383.6719,27.6406 383.4063,27.4063 Q383.1406,27.1719 383.1406,26.7813 Q383.1406,26.4063 383.4063,26.1719 Q383.6719,25.9375 384.2813,25.9375 L389.4219,25.9375 Q390.0313,25.9375 390.2969,26.1719 Q390.5625,26.4063 390.5625,26.7813 Q390.5625,27.1719 390.2969,27.4063 Q390.0313,27.6406 389.4219,27.6406 L387.7031,27.6406 Z "/><text fill="#000000" font-family="sans-serif" font-size="12" font-style="italic" lengthAdjust="spacingAndGlyphs" textLength="87" x="407.25" y="35.9102">WineRepository</text><line style="stroke: #A80036; stroke-width: 1.5;" x1="312.5" x2="556.5" y1="47" y2="47"/><line style="stroke: #A80036; stroke-width: 1.5;" x1="312.5" x2="556.5" y1="55" y2="55"/><text fill="#000000" font-family="sans-serif" font-size="11" lengthAdjust="spacingAndGlyphs" textLength="234" x="317.5" y="70.4189">findWineByUser(userName : String) : List&lt;Wine&gt;</text><!--class WineEstateRepository--><rect fill="#FEFECE" filter="url(#fhkeujz)" height="75.6719" style="stroke: #A80036; stroke-width: 1.5;" width="297" x="6" y="144"/><ellipse cx="89.75" cy="160" fill="#B4A7E5" rx="11" ry="11" style="stroke: #A80036; stroke-width: 1.0;"/><path d="M90.7031,156.6406 L90.7031,163.2969 L92.4219,163.2969 Q93.0313,163.2969 93.2969,163.5313 Q93.5625,163.7656 93.5625,164.1563 Q93.5625,164.5313 93.2969,164.7656 Q93.0313,165 92.4219,165 L87.2813,165 Q86.6719,165 86.4063,164.7656 Q86.1406,164.5313 86.1406,164.1406 Q86.1406,163.7656 86.4063,163.5313 Q86.6719,163.2969 87.2813,163.2969 L89,163.2969 L89,156.6406 L87.2813,156.6406 Q86.6719,156.6406 86.4063,156.4063 Q86.1406,156.1719 86.1406,155.7813 Q86.1406,155.4063 86.4063,155.1719 Q86.6719,154.9375 87.2813,154.9375 L92.4219,154.9375 Q93.0313,154.9375 93.2969,155.1719 Q93.5625,155.4063 93.5625,155.7813 Q93.5625,156.1719 93.2969,156.4063 Q93.0313,156.6406 92.4219,156.6406 L90.7031,156.6406 Z "/><text fill="#000000" font-family="sans-serif" font-size="12" font-style="italic" lengthAdjust="spacingAndGlyphs" textLength="121" x="110.25" y="164.9102">WineEstateRepository</text><line style="stroke: #A80036; stroke-width: 1.5;" x1="7" x2="302" y1="176" y2="176"/><line style="stroke: #A80036; stroke-width: 1.5;" x1="7" x2="302" y1="184" y2="184"/><text fill="#000000" font-family="sans-serif" font-size="11" lengthAdjust="spacingAndGlyphs" textLength="243" x="12" y="199.4189">findWineEstateByName(name: String) : WineEstate</text><text fill="#000000" font-family="sans-serif" font-size="11" lengthAdjust="spacingAndGlyphs" textLength="285" x="12" y="213.2549">findWineEstateByOwner(owner: String) : List&lt;WineEstate&gt;</text></g></svg>