<?xml version="1.0" encoding="UTF-8" standalone="no"?><svg xmlns="http://www.w3.org/2000/svg" xmlns:xlink="http://www.w3.org/1999/xlink" contentScriptType="application/ecmascript" contentStyleType="text/css" height="120px" preserveAspectRatio="none" style="width:702px;height:120px;" version="1.1" viewBox="0 0 702 120" width="702px" zoomAndPan="magnify"><defs><filter height="300%" id="ft5tfr4" width="300%" x="-1" y="-1"><feGaussianBlur result="blurOut" stdDeviation="2.0"/><feColorMatrix in="blurOut" result="blurOut2" type="matrix" values="0 0 0 0 0 0 0 0 0 0 0 0 0 0 0 0 0 0 .4 0"/><feOffset dx="4.0" dy="4.0" in="blurOut2" result="blurOut3"/><feBlend in="SourceGraphic" in2="blurOut3" mode="normal"/></filter></defs><g><!--class WineService--><rect fill="#FEFECE" filter="url(#ft5tfr4)" height="103.3438" style="stroke: #A80036; stroke-width: 1.5;" width="291" x="6" y="8"/><ellipse cx="112.75" cy="24" fill="#B4A7E5" rx="11" ry="11" style="stroke: #A80036; stroke-width: 1.0;"/><path d="M113.7031,20.6406 L113.7031,27.2969 L115.4219,27.2969 Q116.0313,27.2969 116.2969,27.5313 Q116.5625,27.7656 116.5625,28.1563 Q116.5625,28.5313 116.2969,28.7656 Q116.0313,29 115.4219,29 L110.2813,29 Q109.6719,29 109.4063,28.7656 Q109.1406,28.5313 109.1406,28.1406 Q109.1406,27.7656 109.4063,27.5313 Q109.6719,27.2969 110.2813,27.2969 L112,27.2969 L112,20.6406 L110.2813,20.6406 Q109.6719,20.6406 109.4063,20.4063 Q109.1406,20.1719 109.1406,19.7813 Q109.1406,19.4063 109.4063,19.1719 Q109.6719,18.9375 110.2813,18.9375 L115.4219,18.9375 Q116.0313,18.9375 116.2969,19.1719 Q116.5625,19.4063 116.5625,19.7813 Q116.5625,20.1719 116.2969,20.4063 Q116.0313,20.6406 115.4219,20.6406 L113.7031,20.6406 Z "/><text fill="#000000" font-family="sans-serif" font-size="12" font-style="italic" lengthAdjust="spacingAndGlyphs" textLength="69" x="133.25" y="28.9102">WineService</text><line style="stroke: #A80036; stroke-width: 1.5;" x1="7" x2="296" y1="40" y2="40"/><line style="stroke: #A80036; stroke-width: 1.5;" x1="7" x2="296" y1="48" y2="48"/><text fill="#000000" font-family="sans-serif" font-size="11" lengthAdjust="spacingAndGlyphs" textLength="231" x="12" y="63.4189">addWineToUser(userName: String, wine : Wine)</text><text fill="#000000" font-family="sans-serif" font-size="11" lengthAdjust="spacingAndGlyphs" textLength="279" x="12" y="77.2549">addWineToUser(userName : String, imageBase64 : String)</text><text fill="#000000" font-family="sans-serif" font-size="11" lengthAdjust="spacingAndGlyphs" textLength="249" x="12" y="91.0908">updateWineOfUser(userName : String, wine : Wine)</text><text fill="#000000" font-family="sans-serif" font-size="11" lengthAdjust="spacingAndGlyphs" textLength="258" x="12" y="104.9268">getWinesOfUser(userName : UserName) : List&lt;Wine&gt;</text><!--class UserService--><rect fill="#FEFECE" filter="url(#ft5tfr4)" height="89.5078" style="stroke: #A80036; stroke-width: 1.5;" width="361" x="332" y="14.5"/><ellipse cx="474.75" cy="30.5" fill="#B4A7E5" rx="11" ry="11" style="stroke: #A80036; stroke-width: 1.0;"/><path d="M475.7031,27.1406 L475.7031,33.7969 L477.4219,33.7969 Q478.0313,33.7969 478.2969,34.0313 Q478.5625,34.2656 478.5625,34.6563 Q478.5625,35.0313 478.2969,35.2656 Q478.0313,35.5 477.4219,35.5 L472.2813,35.5 Q471.6719,35.5 471.4063,35.2656 Q471.1406,35.0313 471.1406,34.6406 Q471.1406,34.2656 471.4063,34.0313 Q471.6719,33.7969 472.2813,33.7969 L474,33.7969 L474,27.1406 L472.2813,27.1406 Q471.6719,27.1406 471.4063,26.9063 Q471.1406,26.6719 471.1406,26.2813 Q471.1406,25.9063 471.4063,25.6719 Q471.6719,25.4375 472.2813,25.4375 L477.4219,25.4375 Q478.0313,25.4375 478.2969,25.6719 Q478.5625,25.9063 478.5625,26.2813 Q478.5625,26.6719 478.2969,26.9063 Q478.0313,27.1406 477.4219,27.1406 L475.7031,27.1406 Z "/><text fill="#000000" font-family="sans-serif" font-size="12" font-style="italic" lengthAdjust="spacingAndGlyphs" textLength="67" x="495.25" y="35.4102">UserService</text><line style="stroke: #A80036; stroke-width: 1.5;" x1="333" x2="692" y1="46.5" y2="46.5"/><line style="stroke: #A80036; stroke-width: 1.5;" x1="333" x2="692" y1="54.5" y2="54.5"/><text fill="#000000" font-family="sans-serif" font-size="11" lengthAdjust="spacingAndGlyphs" textLength="340" x="338" y="69.9189">createUser(userName : String, email : String, password : String) : User</text><text fill="#000000" font-family="sans-serif" font-size="11" lengthAdjust="spacingAndGlyphs" textLength="178" x="338" y="83.7549">validateUser(token : String) : boolean</text><text fill="#000000" font-family="sans-serif" font-size="11" lengthAdjust="spacingAndGlyphs" textLength="349" x="338" y="97.5908">authenticateUser(userName : String, passwordCandidate : String) : User</text></g></svg>