<?xml version="1.0" encoding="UTF-8" standalone="no"?><svg xmlns="http://www.w3.org/2000/svg" xmlns:xlink="http://www.w3.org/1999/xlink" contentScriptType="application/ecmascript" contentStyleType="text/css" height="161px" preserveAspectRatio="none" style="width:390px;height:161px;" version="1.1" viewBox="0 0 390 161" width="390px" zoomAndPan="magnify"><defs><filter height="300%" id="fjd6lq4" width="300%" x="-1" y="-1"><feGaussianBlur result="blurOut" stdDeviation="2.0"/><feColorMatrix in="blurOut" result="blurOut2" type="matrix" values="0 0 0 0 0 0 0 0 0 0 0 0 0 0 0 0 0 0 .4 0"/><feOffset dx="4.0" dy="4.0" in="blurOut2" result="blurOut3"/><feBlend in="SourceGraphic" in2="blurOut3" mode="normal"/></filter></defs><g><!--class User--><rect fill="#FEFECE" filter="url(#fjd6lq4)" height="144.8516" style="stroke: #A80036; stroke-width: 1.5;" width="138" x="135" y="8"/><ellipse cx="186.25" cy="24" fill="#ADD1B2" rx="11" ry="11" style="stroke: #A80036; stroke-width: 1.0;"/><path d="M189.0156,19.875 Q189.1719,19.6563 189.3594,19.5469 Q189.5469,19.4375 189.7656,19.4375 Q190.1406,19.4375 190.375,19.6953 Q190.6094,19.9531 190.6094,20.5625 L190.6094,22.0156 Q190.6094,22.625 190.375,22.8906 Q190.1406,23.1563 189.7656,23.1563 Q189.4219,23.1563 189.2188,22.9531 Q189.0156,22.7656 188.9063,22.25 Q188.8594,21.8906 188.6719,21.7031 Q188.3438,21.3281 187.7344,21.1094 Q187.125,20.8906 186.5,20.8906 Q185.7344,20.8906 185.1016,21.2188 Q184.4688,21.5469 183.9766,22.2969 Q183.4844,23.0469 183.4844,24.0781 L183.4844,25.1719 Q183.4844,26.4063 184.375,27.2266 Q185.2656,28.0469 186.8594,28.0469 Q187.7969,28.0469 188.4531,27.7969 Q188.8438,27.6406 189.2656,27.2031 Q189.5313,26.9375 189.6797,26.8594 Q189.8281,26.7813 190.0313,26.7813 Q190.3594,26.7813 190.6172,27.0391 Q190.875,27.2969 190.875,27.6406 Q190.875,27.9844 190.5313,28.3906 Q190.0313,28.9688 189.2344,29.2969 Q188.1563,29.75 186.8594,29.75 Q185.3438,29.75 184.1406,29.125 Q183.1563,28.625 182.4688,27.5547 Q181.7813,26.4844 181.7813,25.2031 L181.7813,24.0469 Q181.7813,22.7188 182.3984,21.5703 Q183.0156,20.4219 184.1094,19.8047 Q185.2031,19.1875 186.4375,19.1875 Q187.1719,19.1875 187.8203,19.3516 Q188.4688,19.5156 189.0156,19.875 Z "/><text fill="#000000" font-family="sans-serif" font-size="12" lengthAdjust="spacingAndGlyphs" textLength="27" x="206.75" y="28.9102">User</text><line style="stroke: #A80036; stroke-width: 1.5;" x1="136" x2="272" y1="40" y2="40"/><rect fill="none" height="6" style="stroke: #C82930; stroke-width: 1.0;" width="6" x="143" y="49.418"/><text fill="#000000" font-family="sans-serif" font-size="11" lengthAdjust="spacingAndGlyphs" textLength="86" x="155" y="55.4189">userName : String</text><rect fill="none" height="6" style="stroke: #C82930; stroke-width: 1.0;" width="6" x="143" y="63.2539"/><text fill="#000000" font-family="sans-serif" font-size="11" lengthAdjust="spacingAndGlyphs" textLength="83" x="155" y="69.2549">firstName : String</text><rect fill="none" height="6" style="stroke: #C82930; stroke-width: 1.0;" width="6" x="143" y="77.0898"/><text fill="#000000" font-family="sans-serif" font-size="11" lengthAdjust="spacingAndGlyphs" textLength="81" x="155" y="83.0908">lastName : String</text><rect fill="none" height="6" style="stroke: #C82930; stroke-width: 1.0;" width="6" x="143" y="90.9258"/><text fill="#000000" font-family="sans-serif" font-size="11" lengthAdjust="spacingAndGlyphs" textLength="79" x="155" y="96.9268">gender : Gender</text><rect fill="none" height="6" style="stroke: #C82930; stroke-width: 1.0;" width="6" x="143" y="104.7617"/><text fill="#000000" font-family="sans-serif" font-size="11" lengthAdjust="spacingAndGlyphs" textLength="61" x="155" y="110.7627">email : String</text><rect fill="none" height="6" style="stroke: #C82930; stroke-width: 1.0;" width="6" x="143" y="118.5977"/><text fill="#000000" font-family="sans-serif" font-size="11" lengthAdjust="spacingAndGlyphs" textLength="93" x="155" y="124.5986">status : UserStatus</text><rect fill="none" height="6" style="stroke: #C82930; stroke-width: 1.0;" width="6" x="143" y="132.4336"/><text fill="#000000" font-family="sans-serif" font-size="11" lengthAdjust="spacingAndGlyphs" textLength="112" x="155" y="138.4346">dateOfBirth : LocalDate</text><line style="stroke: #A80036; stroke-width: 1.5;" x1="136" x2="272" y1="144.8516" y2="144.8516"/><!--class Gender--><rect fill="#FEFECE" filter="url(#fjd6lq4)" height="75.6719" style="stroke: #A80036; stroke-width: 1.5;" width="73" x="308.5" y="42.5"/><ellipse cx="323.5" cy="58.5" fill="#EB937F" rx="11" ry="11" style="stroke: #A80036; stroke-width: 1.0;"/><path d="M322.3594,59.2969 L322.3594,61.7969 L326.6875,61.7969 L326.6875,60.875 Q326.6875,60.2656 326.9297,60 Q327.1719,59.7344 327.5469,59.7344 Q327.9219,59.7344 328.1563,60 Q328.3906,60.2656 328.3906,60.875 L328.3906,63.5 L320.3906,63.5 Q319.7656,63.5 319.5078,63.2656 Q319.25,63.0313 319.25,62.6406 Q319.25,62.2656 319.5156,62.0313 Q319.7813,61.7969 320.3906,61.7969 L320.6563,61.7969 L320.6563,55.1406 L320.3906,55.1406 Q319.7656,55.1406 319.5078,54.9063 Q319.25,54.6719 319.25,54.2813 Q319.25,53.9063 319.5078,53.6719 Q319.7656,53.4375 320.3906,53.4375 L328.0156,53.4375 L328.0156,56.0313 Q328.0156,56.6406 327.7891,56.8984 Q327.5625,57.1563 327.1719,57.1563 Q326.7969,57.1563 326.5625,56.8984 Q326.3281,56.6406 326.3281,56.0313 L326.3281,55.1406 L322.3594,55.1406 L322.3594,57.5938 L323.8438,57.5938 Q323.8438,56.9375 323.9688,56.75 Q324.2344,56.3438 324.7031,56.3438 Q325.0781,56.3438 325.3125,56.6016 Q325.5469,56.8594 325.5469,57.4688 L325.5469,59.4375 Q325.5469,59.9844 325.4219,60.1719 Q325.1563,60.5625 324.7031,60.5625 Q324.2344,60.5625 323.9688,60.1563 Q323.8438,59.9688 323.8438,59.2969 L322.3594,59.2969 Z "/><text fill="#000000" font-family="sans-serif" font-size="12" lengthAdjust="spacingAndGlyphs" textLength="41" x="337.5" y="63.4102">Gender</text><line style="stroke: #A80036; stroke-width: 1.5;" x1="309.5" x2="380.5" y1="74.5" y2="74.5"/><text fill="#000000" font-family="sans-serif" font-size="11" lengthAdjust="spacingAndGlyphs" textLength="8" x="314.5" y="89.9189">M</text><text fill="#000000" font-family="sans-serif" font-size="11" lengthAdjust="spacingAndGlyphs" textLength="6" x="314.5" y="103.7549">F</text><line style="stroke: #A80036; stroke-width: 1.5;" x1="309.5" x2="380.5" y1="110.1719" y2="110.1719"/><!--class UserStatus--><rect fill="#FEFECE" filter="url(#fjd6lq4)" height="103.3438" style="stroke: #A80036; stroke-width: 1.5;" width="94" x="6" y="29"/><ellipse cx="21" cy="45" fill="#EB937F" rx="11" ry="11" style="stroke: #A80036; stroke-width: 1.0;"/><path d="M19.8594,45.7969 L19.8594,48.2969 L24.1875,48.2969 L24.1875,47.375 Q24.1875,46.7656 24.4297,46.5 Q24.6719,46.2344 25.0469,46.2344 Q25.4219,46.2344 25.6563,46.5 Q25.8906,46.7656 25.8906,47.375 L25.8906,50 L17.8906,50 Q17.2656,50 17.0078,49.7656 Q16.75,49.5313 16.75,49.1406 Q16.75,48.7656 17.0156,48.5313 Q17.2813,48.2969 17.8906,48.2969 L18.1563,48.2969 L18.1563,41.6406 L17.8906,41.6406 Q17.2656,41.6406 17.0078,41.4063 Q16.75,41.1719 16.75,40.7813 Q16.75,40.4063 17.0078,40.1719 Q17.2656,39.9375 17.8906,39.9375 L25.5156,39.9375 L25.5156,42.5313 Q25.5156,43.1406 25.2891,43.3984 Q25.0625,43.6563 24.6719,43.6563 Q24.2969,43.6563 24.0625,43.3984 Q23.8281,43.1406 23.8281,42.5313 L23.8281,41.6406 L19.8594,41.6406 L19.8594,44.0938 L21.3438,44.0938 Q21.3438,43.4375 21.4688,43.25 Q21.7344,42.8438 22.2031,42.8438 Q22.5781,42.8438 22.8125,43.1016 Q23.0469,43.3594 23.0469,43.9688 L23.0469,45.9375 Q23.0469,46.4844 22.9219,46.6719 Q22.6563,47.0625 22.2031,47.0625 Q21.7344,47.0625 21.4688,46.6563 Q21.3438,46.4688 21.3438,45.7969 L19.8594,45.7969 Z "/><text fill="#000000" font-family="sans-serif" font-size="12" lengthAdjust="spacingAndGlyphs" textLength="62" x="35" y="49.9102">UserStatus</text><line style="stroke: #A80036; stroke-width: 1.5;" x1="7" x2="99" y1="61" y2="61"/><text fill="#000000" font-family="sans-serif" font-size="11" lengthAdjust="spacingAndGlyphs" textLength="58" x="12" y="76.4189">CANDIDATE</text><text fill="#000000" font-family="sans-serif" font-size="11" lengthAdjust="spacingAndGlyphs" textLength="58" x="12" y="90.2549">ACTIVATED</text><text fill="#000000" font-family="sans-serif" font-size="11" lengthAdjust="spacingAndGlyphs" textLength="71" x="12" y="104.0908">DEACTIVATED</text><text fill="#000000" font-family="sans-serif" font-size="11" lengthAdjust="spacingAndGlyphs" textLength="42" x="12" y="117.9268">BANNED</text><line style="stroke: #A80036; stroke-width: 1.5;" x1="7" x2="99" y1="124.3438" y2="124.3438"/><path d="M100.1875,80.5 C111.677,80.5 123.167,80.5 134.656,80.5 " fill="none" style="stroke: #A80036; stroke-width: 1.0;"/><path d="M273.123,80.5 C284.915,80.5 296.708,80.5 308.5,80.5 " fill="none" style="stroke: #A80036; stroke-width: 1.0;"/></g></svg>