<?xml version="1.0" encoding="UTF-8" standalone="no"?><svg xmlns="http://www.w3.org/2000/svg" xmlns:xlink="http://www.w3.org/1999/xlink" contentScriptType="application/ecmascript" contentStyleType="text/css" height="585px" preserveAspectRatio="none" style="width:409px;height:585px;" version="1.1" viewBox="0 0 409 585" width="409px" zoomAndPan="magnify"><defs><filter height="300%" id="f68it04" width="300%" x="-1" y="-1"><feGaussianBlur result="blurOut" stdDeviation="2.0"/><feColorMatrix in="blurOut" result="blurOut2" type="matrix" values="0 0 0 0 0 0 0 0 0 0 0 0 0 0 0 0 0 0 .4 0"/><feOffset dx="4.0" dy="4.0" in="blurOut2" result="blurOut3"/><feBlend in="SourceGraphic" in2="blurOut3" mode="normal"/></filter></defs><g><!--class Wine--><rect fill="#FEFECE" filter="url(#f68it04)" height="186.3594" style="stroke: #A80036; stroke-width: 1.5;" width="143" x="136" y="241"/><ellipse cx="189.25" cy="257" fill="#ADD1B2" rx="11" ry="11" style="stroke: #A80036; stroke-width: 1.0;"/><path d="M192.0156,252.875 Q192.1719,252.6563 192.3594,252.5469 Q192.5469,252.4375 192.7656,252.4375 Q193.1406,252.4375 193.375,252.6953 Q193.6094,252.9531 193.6094,253.5625 L193.6094,255.0156 Q193.6094,255.625 193.375,255.8906 Q193.1406,256.1563 192.7656,256.1563 Q192.4219,256.1563 192.2188,255.9531 Q192.0156,255.7656 191.9063,255.25 Q191.8594,254.8906 191.6719,254.7031 Q191.3438,254.3281 190.7344,254.1094 Q190.125,253.8906 189.5,253.8906 Q188.7344,253.8906 188.1016,254.2188 Q187.4688,254.5469 186.9766,255.2969 Q186.4844,256.0469 186.4844,257.0781 L186.4844,258.1719 Q186.4844,259.4063 187.375,260.2266 Q188.2656,261.0469 189.8594,261.0469 Q190.7969,261.0469 191.4531,260.7969 Q191.8438,260.6406 192.2656,260.2031 Q192.5313,259.9375 192.6797,259.8594 Q192.8281,259.7813 193.0313,259.7813 Q193.3594,259.7813 193.6172,260.0391 Q193.875,260.2969 193.875,260.6406 Q193.875,260.9844 193.5313,261.3906 Q193.0313,261.9688 192.2344,262.2969 Q191.1563,262.75 189.8594,262.75 Q188.3438,262.75 187.1406,262.125 Q186.1563,261.625 185.4688,260.5547 Q184.7813,259.4844 184.7813,258.2031 L184.7813,257.0469 Q184.7813,255.7188 185.3984,254.5703 Q186.0156,253.4219 187.1094,252.8047 Q188.2031,252.1875 189.4375,252.1875 Q190.1719,252.1875 190.8203,252.3516 Q191.4688,252.5156 192.0156,252.875 Z "/><text fill="#000000" font-family="sans-serif" font-size="12" lengthAdjust="spacingAndGlyphs" textLength="28" x="209.75" y="261.9102">Wine</text><line style="stroke: #A80036; stroke-width: 1.5;" x1="137" x2="278" y1="273" y2="273"/><rect fill="none" height="6" style="stroke: #C82930; stroke-width: 1.0;" width="6" x="144" y="282.418"/><text fill="#000000" font-family="sans-serif" font-size="11" lengthAdjust="spacingAndGlyphs" textLength="59" x="156" y="288.4189">label : String</text><rect fill="none" height="6" style="stroke: #C82930; stroke-width: 1.0;" width="6" x="144" y="296.2539"/><text fill="#000000" font-family="sans-serif" font-size="11" lengthAdjust="spacingAndGlyphs" textLength="96" x="156" y="302.2549">commentary : String</text><rect fill="none" height="6" style="stroke: #C82930; stroke-width: 1.0;" width="6" x="144" y="310.0898"/><text fill="#000000" font-family="sans-serif" font-size="11" lengthAdjust="spacingAndGlyphs" textLength="77" x="156" y="316.0908">year : YearDate</text><rect fill="none" height="6" style="stroke: #C82930; stroke-width: 1.0;" width="6" x="144" y="323.9258"/><text fill="#000000" font-family="sans-serif" font-size="11" lengthAdjust="spacingAndGlyphs" textLength="58" x="156" y="329.9268">quantity : int</text><rect fill="none" height="6" style="stroke: #C82930; stroke-width: 1.0;" width="6" x="144" y="337.7617"/><text fill="#000000" font-family="sans-serif" font-size="11" lengthAdjust="spacingAndGlyphs" textLength="47" x="156" y="343.7627">rating : int</text><rect fill="none" height="6" style="stroke: #C82930; stroke-width: 1.0;" width="6" x="144" y="351.5977"/><text fill="#000000" font-family="sans-serif" font-size="11" lengthAdjust="spacingAndGlyphs" textLength="82" x="156" y="357.5986">unitPrice : double</text><rect fill="none" height="6" style="stroke: #C82930; stroke-width: 1.0;" width="6" x="144" y="365.4336"/><text fill="#000000" font-family="sans-serif" font-size="11" lengthAdjust="spacingAndGlyphs" textLength="117" x="156" y="371.4346">wineEstate : WineEstate</text><rect fill="none" height="6" style="stroke: #C82930; stroke-width: 1.0;" width="6" x="144" y="379.2695"/><text fill="#000000" font-family="sans-serif" font-size="11" lengthAdjust="spacingAndGlyphs" textLength="104" x="156" y="385.2705">bottleSize : BottleSize</text><rect fill="none" height="6" style="stroke: #C82930; stroke-width: 1.0;" width="6" x="144" y="393.1055"/><text fill="#000000" font-family="sans-serif" font-size="11" lengthAdjust="spacingAndGlyphs" textLength="78" x="156" y="399.1064">type : WineType</text><rect fill="none" height="6" style="stroke: #C82930; stroke-width: 1.0;" width="6" x="144" y="406.9414"/><text fill="#000000" font-family="sans-serif" font-size="11" lengthAdjust="spacingAndGlyphs" textLength="94" x="156" y="412.9424">status : WineStatus</text><line style="stroke: #A80036; stroke-width: 1.5;" x1="137" x2="278" y1="419.3594" y2="419.3594"/><!--class WineEstate--><rect fill="#FEFECE" filter="url(#f68it04)" height="89.5078" style="stroke: #A80036; stroke-width: 1.5;" width="116" x="149.5" y="487"/><ellipse cx="173.95" cy="503" fill="#ADD1B2" rx="11" ry="11" style="stroke: #A80036; stroke-width: 1.0;"/><path d="M176.7156,498.875 Q176.8719,498.6563 177.0594,498.5469 Q177.2469,498.4375 177.4656,498.4375 Q177.8406,498.4375 178.075,498.6953 Q178.3094,498.9531 178.3094,499.5625 L178.3094,501.0156 Q178.3094,501.625 178.075,501.8906 Q177.8406,502.1563 177.4656,502.1563 Q177.1219,502.1563 176.9188,501.9531 Q176.7156,501.7656 176.6063,501.25 Q176.5594,500.8906 176.3719,500.7031 Q176.0438,500.3281 175.4344,500.1094 Q174.825,499.8906 174.2,499.8906 Q173.4344,499.8906 172.8016,500.2188 Q172.1688,500.5469 171.6766,501.2969 Q171.1844,502.0469 171.1844,503.0781 L171.1844,504.1719 Q171.1844,505.4063 172.075,506.2266 Q172.9656,507.0469 174.5594,507.0469 Q175.4969,507.0469 176.1531,506.7969 Q176.5438,506.6406 176.9656,506.2031 Q177.2313,505.9375 177.3797,505.8594 Q177.5281,505.7813 177.7313,505.7813 Q178.0594,505.7813 178.3172,506.0391 Q178.575,506.2969 178.575,506.6406 Q178.575,506.9844 178.2313,507.3906 Q177.7313,507.9688 176.9344,508.2969 Q175.8563,508.75 174.5594,508.75 Q173.0438,508.75 171.8406,508.125 Q170.8563,507.625 170.1688,506.5547 Q169.4813,505.4844 169.4813,504.2031 L169.4813,503.0469 Q169.4813,501.7188 170.0984,500.5703 Q170.7156,499.4219 171.8094,498.8047 Q172.9031,498.1875 174.1375,498.1875 Q174.8719,498.1875 175.5203,498.3516 Q176.1688,498.5156 176.7156,498.875 Z "/><text fill="#000000" font-family="sans-serif" font-size="12" lengthAdjust="spacingAndGlyphs" textLength="63" x="190.05" y="507.9102">WineEstate</text><line style="stroke: #A80036; stroke-width: 1.5;" x1="150.5" x2="264.5" y1="519" y2="519"/><rect fill="none" height="6" style="stroke: #C82930; stroke-width: 1.0;" width="6" x="157.5" y="528.418"/><text fill="#000000" font-family="sans-serif" font-size="11" lengthAdjust="spacingAndGlyphs" textLength="63" x="169.5" y="534.4189">name : String</text><rect fill="none" height="6" style="stroke: #C82930; stroke-width: 1.0;" width="6" x="157.5" y="542.2539"/><text fill="#000000" font-family="sans-serif" font-size="11" lengthAdjust="spacingAndGlyphs" textLength="69" x="169.5" y="548.2549">owner : String</text><rect fill="none" height="6" style="stroke: #C82930; stroke-width: 1.0;" width="6" x="157.5" y="556.0898"/><text fill="#000000" font-family="sans-serif" font-size="11" lengthAdjust="spacingAndGlyphs" textLength="90" x="169.5" y="562.0908">description : String</text><line style="stroke: #A80036; stroke-width: 1.5;" x1="150.5" x2="264.5" y1="568.5078" y2="568.5078"/><!--class BottleSize--><rect fill="#FEFECE" filter="url(#f68it04)" height="172.5234" style="stroke: #A80036; stroke-width: 1.5;" width="112" x="151.5" y="8"/><ellipse cx="178.2" cy="24" fill="#EB937F" rx="11" ry="11" style="stroke: #A80036; stroke-width: 1.0;"/><path d="M177.0594,24.7969 L177.0594,27.2969 L181.3875,27.2969 L181.3875,26.375 Q181.3875,25.7656 181.6297,25.5 Q181.8719,25.2344 182.2469,25.2344 Q182.6219,25.2344 182.8563,25.5 Q183.0906,25.7656 183.0906,26.375 L183.0906,29 L175.0906,29 Q174.4656,29 174.2078,28.7656 Q173.95,28.5313 173.95,28.1406 Q173.95,27.7656 174.2156,27.5313 Q174.4813,27.2969 175.0906,27.2969 L175.3563,27.2969 L175.3563,20.6406 L175.0906,20.6406 Q174.4656,20.6406 174.2078,20.4063 Q173.95,20.1719 173.95,19.7813 Q173.95,19.4063 174.2078,19.1719 Q174.4656,18.9375 175.0906,18.9375 L182.7156,18.9375 L182.7156,21.5313 Q182.7156,22.1406 182.4891,22.3984 Q182.2625,22.6563 181.8719,22.6563 Q181.4969,22.6563 181.2625,22.3984 Q181.0281,22.1406 181.0281,21.5313 L181.0281,20.6406 L177.0594,20.6406 L177.0594,23.0938 L178.5438,23.0938 Q178.5438,22.4375 178.6688,22.25 Q178.9344,21.8438 179.4031,21.8438 Q179.7781,21.8438 180.0125,22.1016 Q180.2469,22.3594 180.2469,22.9688 L180.2469,24.9375 Q180.2469,25.4844 180.1219,25.6719 Q179.8563,26.0625 179.4031,26.0625 Q178.9344,26.0625 178.6688,25.6563 Q178.5438,25.4688 178.5438,24.7969 L177.0594,24.7969 Z "/><text fill="#000000" font-family="sans-serif" font-size="12" lengthAdjust="spacingAndGlyphs" textLength="54" x="194.8" y="28.9102">BottleSize</text><line style="stroke: #A80036; stroke-width: 1.5;" x1="152.5" x2="262.5" y1="40" y2="40"/><text fill="#000000" font-family="sans-serif" font-size="11" lengthAdjust="spacingAndGlyphs" textLength="27" x="157.5" y="55.4189">SPLIT</text><text fill="#000000" font-family="sans-serif" font-size="11" lengthAdjust="spacingAndGlyphs" textLength="27" x="157.5" y="69.2549">HALF</text><text fill="#000000" font-family="sans-serif" font-size="11" lengthAdjust="spacingAndGlyphs" textLength="39" x="157.5" y="83.0908">BOTTLE</text><text fill="#000000" font-family="sans-serif" font-size="11" lengthAdjust="spacingAndGlyphs" textLength="46" x="157.5" y="96.9268">MAGNUM</text><text fill="#000000" font-family="sans-serif" font-size="11" lengthAdjust="spacingAndGlyphs" textLength="57" x="157.5" y="110.7627">JEROBOAM</text><text fill="#000000" font-family="sans-serif" font-size="11" lengthAdjust="spacingAndGlyphs" textLength="68" x="157.5" y="124.5986">METHUSELAH</text><text fill="#000000" font-family="sans-serif" font-size="11" lengthAdjust="spacingAndGlyphs" textLength="74" x="157.5" y="138.4346">SALMANAZAR</text><text fill="#000000" font-family="sans-serif" font-size="11" lengthAdjust="spacingAndGlyphs" textLength="64" x="157.5" y="152.2705">BALTHAZAR</text><text fill="#000000" font-family="sans-serif" font-size="11" lengthAdjust="spacingAndGlyphs" textLength="100" x="157.5" y="166.1064">NABUCHADNEZZAR</text><line style="stroke: #A80036; stroke-width: 1.5;" x1="152.5" x2="262.5" y1="172.5234" y2="172.5234"/><!--class WineType--><rect fill="#FEFECE" filter="url(#f68it04)" height="117.1797" style="stroke: #A80036; stroke-width: 1.5;" width="86" x="314.5" y="275.5"/><ellipse cx="329.5" cy="291.5" fill="#EB937F" rx="11" ry="11" style="stroke: #A80036; stroke-width: 1.0;"/><path d="M328.3594,292.2969 L328.3594,294.7969 L332.6875,294.7969 L332.6875,293.875 Q332.6875,293.2656 332.9297,293 Q333.1719,292.7344 333.5469,292.7344 Q333.9219,292.7344 334.1563,293 Q334.3906,293.2656 334.3906,293.875 L334.3906,296.5 L326.3906,296.5 Q325.7656,296.5 325.5078,296.2656 Q325.25,296.0313 325.25,295.6406 Q325.25,295.2656 325.5156,295.0313 Q325.7813,294.7969 326.3906,294.7969 L326.6563,294.7969 L326.6563,288.1406 L326.3906,288.1406 Q325.7656,288.1406 325.5078,287.9063 Q325.25,287.6719 325.25,287.2813 Q325.25,286.9063 325.5078,286.6719 Q325.7656,286.4375 326.3906,286.4375 L334.0156,286.4375 L334.0156,289.0313 Q334.0156,289.6406 333.7891,289.8984 Q333.5625,290.1563 333.1719,290.1563 Q332.7969,290.1563 332.5625,289.8984 Q332.3281,289.6406 332.3281,289.0313 L332.3281,288.1406 L328.3594,288.1406 L328.3594,290.5938 L329.8438,290.5938 Q329.8438,289.9375 329.9688,289.75 Q330.2344,289.3438 330.7031,289.3438 Q331.0781,289.3438 331.3125,289.6016 Q331.5469,289.8594 331.5469,290.4688 L331.5469,292.4375 Q331.5469,292.9844 331.4219,293.1719 Q331.1563,293.5625 330.7031,293.5625 Q330.2344,293.5625 329.9688,293.1563 Q329.8438,292.9688 329.8438,292.2969 L328.3594,292.2969 Z "/><text fill="#000000" font-family="sans-serif" font-size="12" lengthAdjust="spacingAndGlyphs" textLength="54" x="343.5" y="296.4102">WineType</text><line style="stroke: #A80036; stroke-width: 1.5;" x1="315.5" x2="399.5" y1="307.5" y2="307.5"/><text fill="#000000" font-family="sans-serif" font-size="11" lengthAdjust="spacingAndGlyphs" textLength="31" x="320.5" y="322.9189">WHITE</text><text fill="#000000" font-family="sans-serif" font-size="11" lengthAdjust="spacingAndGlyphs" textLength="20" x="320.5" y="336.7549">RED</text><text fill="#000000" font-family="sans-serif" font-size="11" lengthAdjust="spacingAndGlyphs" textLength="28" x="320.5" y="350.5908">ROSE</text><text fill="#000000" font-family="sans-serif" font-size="11" lengthAdjust="spacingAndGlyphs" textLength="58" x="320.5" y="364.4268">SPARKLING</text><text fill="#000000" font-family="sans-serif" font-size="11" lengthAdjust="spacingAndGlyphs" textLength="46" x="320.5" y="378.2627">DESSERT</text><line style="stroke: #A80036; stroke-width: 1.5;" x1="315.5" x2="399.5" y1="384.6797" y2="384.6797"/><!--class WineStatus--><rect fill="#FEFECE" filter="url(#f68it04)" height="89.5078" style="stroke: #A80036; stroke-width: 1.5;" width="95" x="6" y="289"/><ellipse cx="21" cy="305" fill="#EB937F" rx="11" ry="11" style="stroke: #A80036; stroke-width: 1.0;"/><path d="M19.8594,305.7969 L19.8594,308.2969 L24.1875,308.2969 L24.1875,307.375 Q24.1875,306.7656 24.4297,306.5 Q24.6719,306.2344 25.0469,306.2344 Q25.4219,306.2344 25.6563,306.5 Q25.8906,306.7656 25.8906,307.375 L25.8906,310 L17.8906,310 Q17.2656,310 17.0078,309.7656 Q16.75,309.5313 16.75,309.1406 Q16.75,308.7656 17.0156,308.5313 Q17.2813,308.2969 17.8906,308.2969 L18.1563,308.2969 L18.1563,301.6406 L17.8906,301.6406 Q17.2656,301.6406 17.0078,301.4063 Q16.75,301.1719 16.75,300.7813 Q16.75,300.4063 17.0078,300.1719 Q17.2656,299.9375 17.8906,299.9375 L25.5156,299.9375 L25.5156,302.5313 Q25.5156,303.1406 25.2891,303.3984 Q25.0625,303.6563 24.6719,303.6563 Q24.2969,303.6563 24.0625,303.3984 Q23.8281,303.1406 23.8281,302.5313 L23.8281,301.6406 L19.8594,301.6406 L19.8594,304.0938 L21.3438,304.0938 Q21.3438,303.4375 21.4688,303.25 Q21.7344,302.8438 22.2031,302.8438 Q22.5781,302.8438 22.8125,303.1016 Q23.0469,303.3594 23.0469,303.9688 L23.0469,305.9375 Q23.0469,306.4844 22.9219,306.6719 Q22.6563,307.0625 22.2031,307.0625 Q21.7344,307.0625 21.4688,306.6563 Q21.3438,306.4688 21.3438,305.7969 L19.8594,305.7969 Z "/><text fill="#000000" font-family="sans-serif" font-size="12" lengthAdjust="spacingAndGlyphs" textLength="63" x="35" y="309.9102">WineStatus</text><line style="stroke: #A80036; stroke-width: 1.5;" x1="7" x2="100" y1="321" y2="321"/><text fill="#000000" font-family="sans-serif" font-size="11" lengthAdjust="spacingAndGlyphs" textLength="58" x="12" y="336.4189">CANDIDATE</text><text fill="#000000" font-family="sans-serif" font-size="11" lengthAdjust="spacingAndGlyphs" textLength="47" x="12" y="350.2549">CURRENT</text><text fill="#000000" font-family="sans-serif" font-size="11" lengthAdjust="spacingAndGlyphs" textLength="45" x="12" y="364.0908">HOLLOW</text><line style="stroke: #A80036; stroke-width: 1.5;" x1="7" x2="100" y1="370.5078" y2="370.5078"/><path d="M207.5,427.261 C207.5,448.012 207.5,469.108 207.5,486.8095 " fill="none" style="stroke: #A80036; stroke-width: 1.0;"/><path d="M101.0234,334 C112.669,334 124.315,334 135.961,334 " fill="none" style="stroke: #A80036; stroke-width: 1.0;"/><path d="M279.277,334 C290.99,334 302.703,334 314.416,334 " fill="none" style="stroke: #A80036; stroke-width: 1.0;"/><path d="M207.5,181.243 C207.5,200.642 207.5,221.317 207.5,240.964 " fill="none" style="stroke: #A80036; stroke-width: 1.0;"/></g></svg>